<svg width="233" height="51" viewBox="0 0 233 51" fill="none" xmlns="http://www.w3.org/2000/svg">
<path d="M65.1565 0H79.64L66.7874 50.026H52.3427L65.1565 0Z" fill="#A5915F"/>
<path d="M86.4742 0.505615H100.958L97.8513 12.0979H103.87L101.734 20.5782H95.638L91.0561 38.6669C90.5513 40.6898 91.4832 41.6623 93.8907 41.6234H96.2981L94.1236 50.0259C91.2114 50.2593 88.4933 50.376 85.9305 50.376C81.5039 50.4149 78.514 49.8703 76.9608 48.7033C75.1747 47.4974 74.864 44.891 75.9513 40.8065L86.4742 0.505615Z" fill="#A5915F"/>
<path d="M109.267 12.137H123.751L114.005 50.026H99.5598L109.267 12.137Z" fill="#A5915F"/>
<path d="M130.313 12.137H144.797L138.39 37.1499C137.574 40.1842 138.506 41.7013 141.224 41.6624C144.059 41.7013 145.884 40.1842 146.66 37.1499L153.067 12.137H167.551L157.843 50.0649H143.399L144.525 45.4746H144.408C141.496 49.1702 137.38 50.9985 132.138 50.9985C128.799 51.0374 126.236 50.3372 124.45 48.8979C122.547 47.4586 122.042 44.7744 123.013 40.8066L130.313 12.137Z" fill="#A5915F"/>
<path d="M231.193 13.1094C229.329 11.709 226.65 11.0477 223.233 11.0866C220.942 11.0866 218.69 11.5145 216.476 12.3703C214.185 13.265 212.128 14.7821 210.38 16.9216C210.031 14.9766 209.099 13.4984 207.623 12.5259C206.109 11.5923 203.818 11.0866 200.712 11.0866C195.431 11.0866 191.276 12.9927 188.325 16.7271H188.169L189.334 12.098H174.734L164.988 50.0259H179.51L185.956 25.0129C186.733 21.9787 188.519 20.5005 191.315 20.5394C194.11 20.5005 195.042 22.0176 194.227 25.0518L187.781 50.0259H202.226L208.672 25.0129C209.487 21.9787 211.312 20.5005 214.185 20.5394C216.981 20.5005 217.952 22.0176 217.098 25.0129L210.691 50.0259H217.059C221.602 50.0259 225.912 47.1084 226.922 43.0628L232.513 21.3952C233.445 17.4274 233.057 14.6654 231.193 13.1094Z" fill="#A5915F"/>
<path d="M24.8899 31.7428L34.7527 10.8921L33.5878 31.7428H24.8899ZM49.2751 50.026L47.3336 0H38.7134C31.5299 0.233403 25.4724 4.08455 22.0554 9.95852L0 50.026H16.658L20.5798 41.3512H33.0442L32.5783 50.026H49.2751Z" fill="#A5915F"/>
</svg>
