<svg width="100" height="87" viewBox="0 0 100 87" fill="none" xmlns="http://www.w3.org/2000/svg">
<path d="M6.97418 71.9476C3.53569 71.9476 0 74.6939 0 79.5009C0 83.8955 3.10869 86.9995 6.97418 86.9995C10.165 86.9995 11.587 84.8648 11.587 84.8648V85.7953C11.587 86.2351 12.0042 86.7258 12.5206 86.7258H14.827V72.276H11.587V74.1096C11.587 74.1096 10.153 71.9476 6.97418 71.9476ZM7.55134 74.9023C10.382 74.9023 11.8668 77.3835 11.8668 79.4998C11.8668 81.8571 10.1038 84.0958 7.55734 84.0958C5.42863 84.0958 3.29628 82.3774 3.29628 79.4687C3.29628 76.8431 5.13131 74.9023 7.55134 74.9023Z" fill="black"/>
<path d="M19.33 86.7258C18.8322 86.7258 18.3965 86.3699 18.3965 85.7953V72.276H21.6365V74.0641C22.3706 72.9642 23.805 71.9432 26.0066 71.9432C29.605 71.9432 31.5211 74.8023 31.5211 77.4758V86.7258H29.2696C28.6793 86.7258 28.2812 86.2332 28.2812 85.7406V78.1873C28.2812 76.7054 27.3702 74.9056 25.2634 74.9056C22.9901 74.9056 21.6365 77.047 21.6365 79.063V86.7258H19.33Z" fill="black"/>
<path d="M40.9665 71.9476C37.528 71.9476 33.9923 74.6939 33.9923 79.5009C33.9923 83.8955 37.101 86.9995 40.9665 86.9995C44.1573 86.9995 45.5794 84.8648 45.5794 84.8648V85.7953C45.5794 86.2351 45.9965 86.7258 46.5129 86.7258H48.8193V65.0511H45.5794V74.1096C45.5794 74.1096 44.1453 71.9476 40.9665 71.9476ZM41.5436 74.9023C44.3743 74.9023 45.8591 77.3835 45.8591 79.4998C45.8591 81.8571 44.0961 84.0958 41.5497 84.0958C39.4209 84.0958 37.2886 82.3774 37.2886 79.4687C37.2886 76.8431 39.1236 74.9023 41.5436 74.9023V74.9023Z" fill="black"/>
<path d="M53.3223 86.7258C52.8246 86.7258 52.3888 86.3699 52.3888 85.7953V72.276H55.6288V74.6843C56.1865 73.3352 57.3899 72.1118 59.5277 72.1118C60.1237 72.1118 60.681 72.2213 60.681 72.2213V75.56C60.681 75.56 59.9851 75.2864 59.1433 75.2864C56.87 75.2864 55.6288 77.4277 55.6288 79.4438V86.7258H53.3223Z" fill="black"/>
<path d="M80.3405 86.7258C79.8427 86.7258 79.4069 86.3699 79.4069 85.7953V72.276H82.6469V86.7258H80.3405Z" fill="black"/>
<path d="M92.1472 71.9476C88.7087 71.9476 85.173 74.6939 85.173 79.5009C85.173 83.8955 88.2817 86.9995 92.1472 86.9995C95.338 86.9995 96.7601 84.8648 96.7601 84.8648V85.7953C96.7601 86.2351 97.1772 86.7258 97.6936 86.7258H100V65.0511H96.7601V74.1096C96.7601 74.1096 95.3261 71.9476 92.1472 71.9476V71.9476ZM92.7244 74.9023C95.555 74.9023 97.0398 77.3835 97.0398 79.4998C97.0398 81.8571 95.2769 84.0958 92.7304 84.0958C90.6017 84.0958 88.4693 82.3774 88.4693 79.4687C88.4693 76.8431 90.3043 74.9023 92.7244 74.9023Z" fill="black"/>
<path d="M81.0015 69.1594C82.185 69.1594 83.1444 68.2031 83.1444 67.0235C83.1444 65.8439 82.185 64.8876 81.0015 64.8876C79.8179 64.8876 78.8585 65.8439 78.8585 67.0235C78.8585 68.2031 79.8179 69.1594 81.0015 69.1594Z" fill="black"/>
<path d="M69.2256 71.9428C65.6245 71.9428 61.6682 74.6219 61.6682 79.4752C61.6682 83.8978 65.0381 87 69.2177 87C74.3687 87 76.8839 82.8727 76.8839 79.5032C76.8839 75.3685 73.6452 71.9428 69.2256 71.9428ZM69.2373 74.9585C71.7275 74.9585 73.5851 76.9589 73.5851 79.4843C73.5851 82.0535 71.6132 84.036 69.2447 84.036C67.0461 84.036 64.9088 82.2527 64.9088 79.5275C64.9088 76.7569 66.9416 74.9585 69.2373 74.9585V74.9585Z" fill="black"/>
<path d="M74.407 16.8288L82.6967 2.51598C83.1645 1.7136 82.8817 0.694361 82.0875 0.22811C81.2933 -0.238134 80.2599 0.0329324 79.8029 0.835317L71.4045 15.3324C64.9968 12.4157 57.7841 10.7892 50.0275 10.7892C42.2709 10.7892 35.0582 12.4157 28.6505 15.3324L20.2521 0.835317C19.7843 0.0329324 18.7617 -0.238134 17.9566 0.22811C17.1516 0.694361 16.8796 1.7136 17.3474 2.51598L25.6371 16.8288C11.3423 24.549 1.6601 38.9702 0.0609131 55.8528H99.9941C98.3949 38.9702 88.7127 24.549 74.407 16.8288ZM27.084 41.8653C24.7668 41.8653 22.8956 39.9895 22.8956 37.6908C22.8956 35.3812 24.7777 33.5162 27.084 33.5162C29.4012 33.5162 31.2724 35.3921 31.2724 37.6908C31.2833 39.9895 29.4012 41.8653 27.084 41.8653ZM72.9601 41.8653C70.6429 41.8653 68.7718 39.9895 68.7718 37.6908C68.7718 35.3812 70.6538 33.5162 72.9601 33.5162C75.2773 33.5162 77.1485 35.3921 77.1485 37.6908C77.1594 39.9895 75.2773 41.8653 72.9601 41.8653Z" fill="#32DE84"/>
</svg>
