<svg width="100" height="100" viewBox="0 0 100 100" fill="none" xmlns="http://www.w3.org/2000/svg">
<path d="M0 12.8941C0 5.77227 5.77305 0 12.8941 0H87.1055C94.2277 0 100 5.77305 100 12.8941V87.1055C100 94.2277 94.227 100 87.1059 100H12.8945C5.77227 100 0 94.227 0 87.1059V12.8945V12.8941Z" fill="#563D7C"/>
<path d="M41.468 55.7664V69.9277H53.9332C55.1207 69.9277 56.2653 69.8289 57.3676 69.6309C58.47 69.4332 59.4454 69.0801 60.2934 68.5711C61.1411 68.0621 61.8196 67.3555 62.3286 66.4512C62.8372 65.5465 63.0918 64.3875 63.0918 62.9746C63.0918 60.4305 62.3286 58.593 60.802 57.4625C59.2758 56.3316 57.3254 55.7664 54.9508 55.7664H41.468V55.7664ZM28.1543 80.2734V19.7266H57.495C60.2086 19.7266 62.8516 20.0656 65.4239 20.7441C67.9961 21.4227 70.2856 22.4684 72.2926 23.8816C74.2993 25.2949 75.8965 27.1184 77.0837 29.3512C78.2712 31.5844 78.8645 34.2273 78.8645 37.2801C78.8645 41.068 77.9458 44.3043 76.1087 46.9895C74.2712 49.675 71.4868 51.5547 67.7555 52.6289C70.4692 53.9289 72.5188 55.5969 73.904 57.632C75.2887 59.6672 75.9813 62.2109 75.9813 65.2641C75.9813 68.0906 75.5149 70.4648 74.5821 72.3871C73.6493 74.309 72.3348 75.8496 70.6387 77.0086C68.943 78.1676 66.9079 79.0016 64.5332 79.5102C62.159 80.0191 59.5301 80.2734 56.6469 80.2734H28.1543V80.2734ZM41.468 30.0723V46.693H55.9684C58.8516 46.693 61.1696 46.0289 62.9223 44.7C64.6747 43.3715 65.5512 41.1527 65.5512 38.0434C65.5512 36.4602 65.2825 35.1602 64.7454 34.1426C64.2082 33.125 63.4875 32.3191 62.5829 31.7258C61.6786 31.132 60.6325 30.7082 59.4453 30.4535C58.2578 30.1996 57.0145 30.0723 55.7141 30.0723H41.468V30.0723Z" fill="white"/>
</svg>
