<svg width="103" height="116" viewBox="0 0 103 116" fill="none" xmlns="http://www.w3.org/2000/svg">
<g clip-path="url(#clip0)">
<path fill-rule="evenodd" clip-rule="evenodd" d="M51.4994 40.9327C42.0932 40.9327 34.4672 48.5738 34.4672 57.9994C34.4672 61.0819 35.2872 63.9713 36.7136 66.467L66.23 49.4366C63.2796 44.3532 57.7898 40.9327 51.4994 40.9327Z" fill="#6596D4"/>
<path fill-rule="evenodd" clip-rule="evenodd" d="M17.295 57.9994C17.295 39.0703 32.6086 23.725 51.4994 23.725C64.1527 23.725 75.2003 30.6111 81.1174 40.8467L101.735 28.9505C100.908 27.4957 99.6692 26.2766 98.0083 25.3126C84.296 17.3902 70.5711 9.49174 56.8632 1.56096C53.1677 -0.577118 49.5847 -0.499504 45.9166 1.6693C40.4589 4.89489 13.1335 20.5823 4.991 25.3083C1.63765 27.2536 0.00580897 30.2308 0.00520388 34.0999C0 50.0332 0.00520388 65.9659 0 81.8991C0.000726121 83.8072 0.399366 85.497 1.20415 86.9542L21.8249 75.0565C18.9438 70.0334 17.295 64.2097 17.295 57.9994Z" fill="#6596D4"/>
<path d="M36.7136 66.467C39.6494 71.6028 45.1684 75.0668 51.4994 75.0668C57.8697 75.0668 63.42 71.559 66.3409 66.3682L51.6571 57.8445L36.7136 66.467Z" fill="#224B8B"/>
<path d="M51.4994 92.2744C38.8061 92.2744 27.7274 85.3462 21.8249 75.0565L1.20416 86.9542C2.03146 88.4525 3.28727 89.7052 4.98665 90.6911C13.1299 95.4171 40.4583 111.103 45.915 114.33C49.5848 116.499 53.1677 116.577 56.8644 114.438C70.5726 106.507 84.2985 98.6088 98.0127 90.6861C99.712 89.7008 100.968 88.4475 101.795 86.9499L81.206 74.9981C75.3121 85.3181 64.2159 92.2744 51.4994 92.2744Z" fill="#224B8B"/>
<path d="M100.237 59.9251H96.3189V63.8517H92.4001V59.9251H88.4825V55.9992H92.4001V52.0732H96.3189V55.9992H100.237V59.9251ZM85.9405 59.9251H82.0229V63.8517H78.1047V59.9251H74.1869V55.9992H78.1047V52.0732H82.0229V55.9992H85.9405V59.9251ZM102.993 34.1037C102.993 32.1531 102.576 30.4298 101.735 28.9505L51.657 57.8445L101.795 86.95C102.598 85.4929 102.998 83.8028 102.999 81.8948C102.999 81.8948 102.999 50.0373 102.993 34.1037Z" fill="#2A5EA8"/>
<path d="M96.3189 52.0732H92.4001V55.9991H88.4825V59.9251H92.4001V63.8517H96.3189V59.9251H100.237V55.9991H96.3189V52.0732Z" fill="white"/>
<path d="M82.023 52.0732H78.1048V55.9991H74.1869V59.9251H78.1048V63.8517H82.023V59.9251H85.9405V55.9991H82.023V52.0732Z" fill="white"/>
<path d="M66.3409 66.3682C63.42 71.559 57.8697 75.0667 51.4994 75.0667C45.1684 75.0667 39.6494 71.6027 36.7136 66.4669C35.2872 63.9712 34.4672 61.0819 34.4672 57.9994C34.4672 48.5738 42.0932 40.9327 51.4994 40.9327C57.7898 40.9327 63.2796 44.3532 66.23 49.4365L81.1173 40.8467C75.2002 30.6111 64.1527 23.725 51.4994 23.725C32.6086 23.725 17.295 39.0703 17.295 57.9994C17.295 64.2097 18.9438 70.0334 21.8249 75.0565C27.7274 85.3461 38.8061 92.2744 51.4994 92.2744C64.2159 92.2744 75.3121 85.3181 81.2059 74.9981L66.3409 66.3682Z" fill="white"/>
</g>
<defs>
<clipPath id="clip0">
<rect width="103" height="116" fill="white"/>
</clipPath>
</defs>
</svg>
