<svg width="102" height="115" viewBox="0 0 102 115" fill="none" xmlns="http://www.w3.org/2000/svg">
<path d="M102 33.7737C102 31.8521 101.591 30.1195 100.743 28.6705C99.926 27.2214 98.7005 26.0244 97.0665 25.0794C83.4917 17.2356 69.8854 9.39181 56.3105 1.54804C52.634 -0.562536 49.1146 -0.499533 45.4695 1.64254C40.0647 4.82415 12.9778 20.3857 4.93345 25.0794C1.60259 27.0009 0 29.962 0 33.8052C0 49.5872 0 65.4007 0 81.1828C0 83.0729 0.408501 84.7424 1.19408 86.1915C2.01109 87.672 3.26802 88.9321 4.93345 89.9086C13.0092 94.6023 40.0647 110.132 45.4695 113.345C49.1146 115.487 52.6654 115.582 56.3105 113.44C69.8854 105.565 83.4917 97.7524 97.0665 89.9086C98.7634 88.9321 99.9889 87.7035 100.806 86.1915C101.591 84.7424 102 83.0729 102 81.1828C102 81.1513 102 49.5557 102 33.7737Z" fill="#9A4993"/>
<path d="M51.1257 57.305L1.13129 86.16C1.94829 87.6405 3.20522 88.9006 4.87066 89.8771C12.9464 94.5708 40.0019 110.101 45.4067 113.314C49.0518 115.456 52.6026 115.551 56.2477 113.408C69.8226 105.533 83.4289 97.7209 97.0037 89.8771C98.7006 88.9006 99.9261 87.672 100.743 86.16L51.1257 57.305Z" fill="#6A1577"/>
<path d="M36.3253 65.8418C39.2477 70.945 44.7153 74.3786 50.9686 74.3786C57.2846 74.3786 62.7837 70.9135 65.6747 65.7473L51.1257 57.305L36.3253 65.8418Z" fill="#6A1577"/>
<path d="M102 33.7736C102 31.852 101.592 30.1195 100.743 28.6704L51.1257 57.3049L100.806 86.1599C101.592 84.7108 102 83.0413 102 81.1512C102 81.1512 102 49.5556 102 33.7736Z" fill="#813084"/>
<path d="M65.6747 65.7473C62.7838 70.882 57.2847 74.3786 50.9686 74.3786C44.684 74.3786 39.2163 70.945 36.3254 65.8418C34.9113 63.3532 34.0943 60.5181 34.0943 57.4625C34.0943 48.1067 41.6359 40.5464 50.9686 40.5464C57.1904 40.5464 62.6267 43.9485 65.549 48.9887L80.2866 40.4834C74.4104 30.3401 63.4751 23.5043 50.9372 23.5043C32.2089 23.5043 17.0629 38.7194 17.0629 57.4625C17.0629 63.6052 18.6969 69.4014 21.5565 74.3786C27.4012 84.5534 38.3993 91.4207 50.9686 91.4207C63.5694 91.4207 74.5675 84.5219 80.4123 74.2841L65.6747 65.7473Z" fill="white"/>
<path d="M84.3094 49.4297H80.9471V65.7158H84.3094V49.4297Z" fill="white"/>
<path d="M91.756 49.4297H88.3937V65.7158H91.756V49.4297Z" fill="white"/>
<path d="M94.4897 52.1711H78.2439V55.5417H94.4897V52.1711Z" fill="white"/>
<path d="M94.4898 59.6046H78.244V62.9752H94.4898V59.6046Z" fill="white"/>
</svg>
