<svg width="199" height="280" viewBox="0 0 199 280" fill="none" xmlns="http://www.w3.org/2000/svg">
<path d="M18.3546 257.254L0.304993 55.1832H198.695L180.645 257.176L99.3444 279.68L18.3546 257.254Z" fill="#1F72B5"/>
<path d="M99.5 262.53L165.163 244.372L180.645 71.712H99.5V262.53Z" fill="#51A3DC"/>
<path d="M35.0038 118.35L32.592 94.992H166.408L164.852 122.074L108.291 146.984H162.518L156.683 223.808L101.99 238.474L45.2734 224.739L41.7724 185.784H66.824L68.2244 206.348L101.056 212.478L131.398 203.166L132.798 170.264H39.594L37.8824 145.82L99.5 118.893L35.0038 118.35Z" fill="#EBEBEB"/>
<path d="M37.8824 145.82L39.594 170.264H99.5V118.893L37.8824 145.82Z" fill="#CECECE"/>
<path d="M68.2244 206.348L66.824 185.784H41.7724L45.2734 224.739L99.5 237.854V212.168L68.2244 206.348Z" fill="#CECECE"/>
<path d="M32.592 94.992L35.0038 118.35L99.5 118.893V94.992H32.592Z" fill="#CECECE"/>
<path d="M118.172 9.63201V0.320007H80.828V22.048H106.502V29.032H80.05V37.568H117.394V15.064H90.942V9.63201H118.172Z" fill="black"/>
<path d="M50.486 22.2808V29.032H76.938V37.568H39.594V15.2968V0.320007H76.16V9.63201H50.486V22.2808Z" fill="black"/>
<path d="M159.406 9.63201V0.320007H122.062V22.048H147.736V29.032H121.284V37.568H158.628V15.064H132.176V9.63201H159.406Z" fill="black"/>
</svg>
