<svg width="252" height="342" viewBox="0 0 252 342" fill="none" xmlns="http://www.w3.org/2000/svg">
<g clip-path="url(#clip0)">
<path d="M23.1884 312.941L0.279358 55.8823H252.279L229.37 312.941L126 342L23.1884 312.941Z" fill="#F1DD3F"/>
<path d="M142.707 107.853L134.549 139.147H170.701L167.907 171.559H126L117.675 203.412H165.113L161.202 244.206L126 253.706L105.885 248.285L97.8945 278.909L126 286.677H126.559L191.375 268.794L205.344 107.853H142.707Z" fill="#323330"/>
<path d="M90.7982 244.206L87.2781 203.412H101.526L109.852 171.559H84.6519L81.8581 139.147H118.345L126.559 107.853H47.2151L61.184 268.794L82.808 274.774L90.7982 244.206Z" fill="#323330"/>
<path opacity="0.3" d="M126.559 319.647L209.814 296.735L229.37 76.5588H126.559V319.647Z" fill="white"/>
</g>
<defs>
<clipPath id="clip0">
<rect width="252" height="342" fill="white"/>
</clipPath>
</defs>
</svg>
