<svg width="198" height="280" viewBox="0 0 198 280" fill="none" xmlns="http://www.w3.org/2000/svg">
<path d="M18.0633 257.254L0.0600586 55.1832H197.94L179.937 257.176L98.8449 279.68L18.0633 257.254Z" fill="#E44D26"/>
<path d="M99.0001 262.53L164.494 244.372L179.937 71.712H99.0001V262.53Z" fill="#F16529"/>
<path d="M99 146.674H66.1752L63.9248 121.298H99V96.544H98.9224H36.8424L37.4632 103.14L43.516 171.428H99V146.674Z" fill="#EBEBEB"/>
<path d="M99 211.004L98.9224 211.082L71.2969 203.554L69.5121 183.844H56.0872H44.6801L48.0944 222.722L98.9224 236.845L99 236.767V211.004Z" fill="#EBEBEB"/>
<path d="M18.4513 0.320007H31.0225V12.736H42.5073V0.320007H55.0785V37.956H42.5073V25.3072H31.0225V37.956H18.4513V0.320007Z" fill="black"/>
<path d="M71.6849 12.8136H60.5881V0.320007H95.3529V12.8136H84.2561V37.956H71.6849V12.8136Z" fill="black"/>
<path d="M100.94 0.320007H114.054L122.125 13.5896L130.195 0.320007H143.31V37.956H130.816V19.332L122.125 32.7568H121.892L113.201 19.332V38.0336H100.862V0.320007H100.94Z" fill="black"/>
<path d="M149.595 0.320007H162.166V25.54H179.859V37.956H149.595V0.320007Z" fill="black"/>
<path d="M98.9224 146.674V171.428H129.419L126.548 203.554L98.9224 211.004V236.845L149.673 222.722L150.061 218.531L155.881 153.347L156.502 146.674H149.828H98.9224Z" fill="white"/>
<path d="M98.9224 96.544V111.909V121.221V121.298H158.674H158.752L159.295 115.711L160.382 103.14L161.002 96.544H98.9224Z" fill="white"/>
</svg>
