<svg width="99" height="139" viewBox="0 0 99 139" fill="none" xmlns="http://www.w3.org/2000/svg">
<g clip-path="url(#clip0)">
<path d="M99 27.2385H0L9.28125 127.624L49.4944 139L89.7076 127.624L99 27.2385Z" fill="#E6A329"/>
<path d="M49.4944 35.4172V130.493L82.0764 121.286L90.003 35.4172H49.4944Z" fill="#F1BF22"/>
<path d="M75.415 47.7326H25.3186L21.829 85.3182L21.9015 85.0847H64.4615L63.0735 100.986L49.4944 104.884L35.7147 100.925L34.8897 91.3008H22.3809L24.1647 110.533L49.4944 117.705L74.8353 110.533L78.3248 72.786H33.1561L33.7358 60.2092H65.0747L65.5429 67.415H78.1632L75.415 47.7326Z" fill="white"/>
<path d="M49.5056 47.7326H25.3186L21.829 85.3182L21.9015 85.0847H49.5056V72.8249H34.9176L35.4973 60.2482H49.5056V47.7326ZM34.9176 91.3008H22.3809L24.1647 110.522L49.4944 117.683V104.895L35.7147 100.925L34.9176 91.3008Z" fill="#EBEBEB"/>
<path d="M39.8676 12.4322H31.0546V18.7428H46.1721V0H39.8676V12.4322ZM67.9399 0.10008H52.577V6.66088C54.6284 8.70696 55.6987 9.69108 58.7199 12.6546H52.577V18.6371H67.9399V12.6657L61.797 6.672H67.9399V0.10008Z" fill="#231F20"/>
</g>
<defs>
<clipPath id="clip0">
<rect width="99" height="139" fill="white"/>
</clipPath>
</defs>
</svg>
