<svg width="131" height="243" viewBox="0 0 131 243" fill="none" xmlns="http://www.w3.org/2000/svg">
<path d="M43.4602 128.89C43.4602 128.89 37.1164 132.553 47.9728 133.795C61.1182 135.299 67.8544 135.103 82.3078 132.356C82.3078 132.356 86.101 134.776 91.4638 136.804C58.96 150.734 17.9542 136.019 43.4602 128.89Z" fill="#0074BD"/>
<path d="M39.4708 110.709C39.4708 110.709 32.3422 116.006 43.1986 117.118C57.2596 118.557 68.3122 118.688 87.5398 114.96C87.5398 114.96 90.2212 117.641 94.3414 119.146C55.1668 130.591 11.4142 119.996 39.4708 110.709Z" fill="#0074BD"/>
<path d="M72.9557 79.8402C80.9344 89.0616 70.8629 97.3674 70.8629 97.3674C70.8629 97.3674 91.2022 86.9034 81.8501 73.758C73.1519 61.5282 66.4157 55.446 102.647 34.4526C102.647 34.3872 45.8147 48.579 72.9557 79.8402Z" fill="#EA2D2E"/>
<path d="M115.923 142.297C115.923 142.297 120.632 146.156 110.757 149.164C91.987 154.854 32.6692 156.554 16.2538 149.36C10.3678 146.81 21.4204 143.213 24.952 142.428C28.6144 141.643 30.6418 141.774 30.6418 141.774C24.0364 137.131 -11.9336 150.865 12.3952 154.854C78.58 165.645 133.124 150.08 115.923 142.297Z" fill="#0074BD"/>
<path d="M46.534 91.8738C46.534 91.8738 16.3846 99.0678 35.8738 101.618C44.1142 102.73 60.4642 102.469 75.7678 101.161C88.2592 100.114 100.816 97.8906 100.816 97.8906C100.816 97.8906 96.4342 99.7872 93.2296 101.945C62.6224 109.99 3.43544 106.262 20.4394 98.0214C34.8274 91.089 46.534 91.8738 46.534 91.8738Z" fill="#0074BD"/>
<path d="M100.62 122.089C131.75 105.935 117.362 90.3696 107.291 92.4624C104.805 92.9856 103.759 93.4434 103.759 93.4434C103.759 93.4434 104.675 92.0046 106.44 91.416C126.322 84.4182 141.626 112.017 100.031 122.939C100.031 122.939 100.489 122.481 100.62 122.089Z" fill="#0074BD"/>
<path d="M81.85 0.51001C81.85 0.51001 99.1156 17.7756 65.5 44.2626C38.5552 65.5176 59.3524 77.682 65.5 91.5468C49.7386 77.355 38.2282 64.8636 45.9454 53.2224C57.325 36.2184 88.7824 27.9126 81.85 0.51001Z" fill="#EA2D2E"/>
<path d="M49.5424 165.972C79.4302 167.869 125.341 164.926 126.453 150.734C126.453 150.734 124.36 156.097 101.732 160.348C76.2256 165.122 44.7682 164.599 26.0638 161.525C26.1292 161.525 29.9224 164.729 49.5424 165.972Z" fill="#0074BD"/>
<path d="M125.079 191.347H124.164V190.824H126.584V191.347H125.668V193.898H125.014L125.079 191.347ZM129.984 191.478L129.069 193.898H128.676L127.761 191.478V193.898H127.172V190.824H128.022L128.873 192.982L129.723 190.824H130.573V193.898H129.984V191.478Z" fill="#EA2D2E"/>
<path d="M44.7028 219.992C41.8906 222.412 38.8822 223.786 36.2008 223.786C32.4076 223.786 30.3148 221.497 30.3148 217.834C30.3148 213.845 32.5384 210.967 41.3674 210.967H44.6374V219.992H44.7028ZM52.4854 228.756V201.615C52.4854 194.683 48.496 190.105 39.013 190.105C33.454 190.105 28.549 191.478 24.5596 193.244L25.6714 198.083C28.8106 196.906 32.8654 195.86 36.7894 195.86C42.283 195.86 44.6374 198.083 44.6374 202.661V206.128H41.956C28.6144 206.128 22.5976 211.294 22.5976 219.077C22.5976 225.813 26.587 229.606 34.0426 229.606C38.8168 229.606 42.4138 227.644 45.8146 224.701L46.4032 228.821H52.4854V228.756Z" fill="#EA2D2E"/>
<path d="M78.4493 228.756H68.7701L57.0635 190.759H65.5655L72.8249 214.106L74.4599 221.104C78.1223 210.967 80.7383 200.634 81.9809 190.759H90.2213C87.9323 203.315 84.0083 217.049 78.4493 228.756Z" fill="#EA2D2E"/>
<path d="M115.662 219.992C112.85 222.412 109.841 223.786 107.16 223.786C103.367 223.786 101.274 221.497 101.274 217.834C101.274 213.845 103.497 210.967 112.326 210.967H115.596L115.662 219.992ZM123.444 228.756V201.615C123.444 194.683 119.455 190.105 109.907 190.105C104.348 190.105 99.4426 191.478 95.4532 193.244L96.565 198.083C99.7042 196.906 103.759 195.86 107.683 195.86C113.177 195.86 115.531 198.083 115.531 202.661V206.128H112.784C99.4426 206.128 93.4258 211.294 93.4258 219.077C93.4258 225.813 97.4152 229.606 104.871 229.606C109.71 229.606 113.242 227.644 116.643 224.701L117.231 228.821H123.444V228.756Z" fill="#EA2D2E"/>
<path d="M14.0302 235.231C11.8066 238.501 8.20959 241.051 4.28559 242.49L0.427002 237.977C3.4354 236.473 5.986 233.988 7.1632 231.699C8.2096 229.672 8.60199 226.99 8.60199 220.712V177.352H16.8424V220.123C16.9078 228.494 16.2538 231.895 14.0302 235.231Z" fill="#EA2D2E"/>
</svg>
