<svg width="112" height="113" viewBox="0 0 112 113" fill="none" xmlns="http://www.w3.org/2000/svg">
<path d="M55.3332 0.000924272C50.7149 0.0223384 46.3046 0.415383 42.424 1.10062C30.9922 3.11602 28.9166 7.33444 28.9166 15.1139V25.3882H55.9314V28.813H28.9166H18.7782C10.9269 28.813 4.05212 33.5222 1.90178 42.4807C-0.578618 52.7492 -0.688637 59.1569 1.90178 69.8788C3.82209 77.8598 8.40805 83.5465 16.2593 83.5465H25.5476V71.2299C25.5476 62.3319 33.2625 54.4831 42.424 54.4831H69.4073C76.9185 54.4831 82.9147 48.3115 82.9147 40.784V15.1139C82.9147 7.80806 76.7385 2.31994 69.4073 1.10062C64.7666 0.329727 59.9514 -0.0204898 55.3332 0.000924272ZM40.7238 8.26436C43.5142 8.26436 45.793 10.5755 45.793 13.4172C45.793 16.2489 43.5142 18.5387 40.7238 18.5387C37.9233 18.5387 35.6546 16.2489 35.6546 13.4172C35.6546 10.5755 37.9233 8.26436 40.7238 8.26436Z" fill="url(#paint0_linear)"/>
<path d="M86.2836 28.8129V40.7839C86.2836 50.0648 78.3987 57.8763 69.4072 57.8763H42.4239C35.0327 57.8763 28.9165 64.1889 28.9165 71.5754V97.2455C28.9165 104.551 35.2828 108.849 42.4239 110.945C50.9753 113.454 59.1756 113.907 69.4072 110.945C76.2083 108.98 82.9146 105.025 82.9146 97.2455V86.9711H55.9313V83.5464H82.9146H96.4221C104.273 83.5464 107.199 78.0814 109.929 69.8787C112.75 61.4342 112.63 53.3133 109.929 42.4805C107.989 34.6809 104.283 28.8129 96.4221 28.8129H86.2836ZM71.1075 93.8207C73.9079 93.8207 76.1767 96.1105 76.1767 98.9421C76.1767 101.784 73.9079 104.095 71.1075 104.095C68.317 104.095 66.0383 101.784 66.0383 98.9421C66.0383 96.1105 68.317 93.8207 71.1075 93.8207Z" fill="url(#paint1_linear)"/>
<path d="M94.4071 16.0507H95.9809V6.20123H99.7089V5.02722H90.6791V6.20123H94.4071V16.0507ZM101.104 16.0507H102.449V7.05506L105.367 16.0496H106.864L109.905 7.08555V16.0507H111.372V5.02722H109.431L106.108 14.4712L103.274 5.02722H101.104V16.0507Z" fill="#646464"/>
<defs>
<linearGradient id="paint0_linear" x1="8.81726e-08" y1="7.64328e-08" x2="62.1834" y2="53.1" gradientUnits="userSpaceOnUse">
<stop stop-color="#5A9FD4"/>
<stop offset="1" stop-color="#306998"/>
</linearGradient>
<linearGradient id="paint1_linear" x1="70.4583" y1="98.0783" x2="48.1718" y2="66.7829" gradientUnits="userSpaceOnUse">
<stop stop-color="#FFD43B"/>
<stop offset="1" stop-color="#FFE873"/>
</linearGradient>
</defs>
</svg>
