<svg width="447" height="238" viewBox="0 0 447 238" fill="none" xmlns="http://www.w3.org/2000/svg">
<path d="M199.922 236.872H312.798C317.255 236.872 317.262 229.939 312.798 229.939H199.922C195.466 229.939 195.459 236.872 199.922 236.872Z" fill="#E6E6E6"/>
<path d="M169.447 86.2163H56.9496C55.7612 86.2178 54.6219 86.691 53.7816 87.5323C52.9413 88.3735 52.4686 89.514 52.4672 90.7037V113.077C58.0788 113.209 61.7212 117.845 62.6039 123.472V143.754H63.03C63.0977 143.755 63.1626 143.782 63.2105 143.83C63.2584 143.878 63.2854 143.943 63.2856 144.01V154.803C63.2854 154.871 63.2584 154.936 63.2105 154.984C63.1626 155.032 63.0977 155.059 63.03 155.059H62.6039V220.291C62.6039 221.724 62.5895 224.339 62.5895 224.339H169.447C170.635 224.337 171.775 223.864 172.615 223.023C173.455 222.182 173.928 221.041 173.929 219.852V90.7037C173.928 89.514 173.455 88.3735 172.615 87.5322C171.775 86.691 170.635 86.2178 169.447 86.2163V86.2163Z" fill="#6C63FF"/>
<path d="M378.463 12.6006V135.023H181.71V81.1232C181.707 78.6757 180.735 76.3292 179.007 74.5986C177.278 72.868 174.934 71.8948 172.489 71.8924H135.59V12.6006H378.463Z" fill="#6C63FF"/>
<path d="M390.611 152.282H181.93V151.429H389.759V7.25153C389.757 5.55515 389.083 3.92881 387.885 2.72929C386.686 1.52977 385.062 0.85504 383.367 0.853118H128.137C126.443 0.855041 124.818 1.52977 123.62 2.72929C122.422 3.92881 121.748 5.55516 121.746 7.25153V71.3396H120.893V7.25153C120.896 5.32897 121.66 3.48577 123.017 2.12631C124.375 0.76686 126.217 0.00216373 128.137 0H383.367C385.288 0.00216068 387.129 0.766851 388.487 2.12631C389.845 3.48576 390.609 5.32897 390.611 7.25153V152.282Z" fill="#3F3D56"/>
<path d="M370.838 178.302H181.93V177.449H370.838C375.854 177.443 380.663 175.446 384.211 171.895C387.758 168.344 389.753 163.529 389.759 158.507V152.282H181.93V151.429H390.611V158.507C390.605 163.755 388.52 168.787 384.813 172.498C381.106 176.209 376.08 178.296 370.838 178.302V178.302Z" fill="#3F3D56"/>
<path d="M314.773 220.105C304.242 209.982 297.315 196.773 295.088 178.302H217.473C216.684 195.583 209.8 208.544 197.383 220.059L196.071 220.105C208.882 208.482 215.938 195.427 216.639 177.858L216.656 177.449H295.846L295.889 177.826C298.077 196.61 305.149 209.904 315.94 220.037L314.773 220.105Z" fill="#3F3D56"/>
<path d="M172.283 237.753H52.7222V236.9H172.283C174.728 236.897 177.071 235.923 178.8 234.193C180.528 232.463 181.501 230.116 181.503 227.669V81.319C181.501 78.8718 180.528 76.5256 178.8 74.7952C177.071 73.0647 174.728 72.0914 172.283 72.0886H52.7222C50.2777 72.0914 47.9341 73.0647 46.2056 74.7952C44.477 76.5256 43.5047 78.8718 43.502 81.319V112.902H42.6498V81.319C42.6528 78.6456 43.715 76.0826 45.6033 74.1922C47.4916 72.3019 50.0518 71.2385 52.7222 71.2355H172.283C174.954 71.2385 177.514 72.3018 179.402 74.1922C181.29 76.0826 182.353 78.6456 182.356 81.319V227.669C182.353 230.343 181.29 232.906 179.402 234.796C177.514 236.686 174.954 237.75 172.283 237.753Z" fill="#3F3D56"/>
<path d="M112.503 82.0286C111.931 82.0286 111.373 81.859 110.897 81.5412C110.422 81.2233 110.052 80.7716 109.833 80.243C109.615 79.7145 109.557 79.1329 109.669 78.5718C109.78 78.0108 110.055 77.4953 110.46 77.0908C110.864 76.6863 111.378 76.4108 111.939 76.2992C112.499 76.1876 113.08 76.2448 113.608 76.4637C114.136 76.6827 114.588 77.0534 114.905 77.5291C115.223 78.0047 115.392 78.5639 115.392 79.136C115.391 79.9029 115.086 80.6381 114.545 81.1804C114.003 81.7227 113.269 82.0277 112.503 82.0286V82.0286ZM112.503 76.9122C112.063 76.9122 111.634 77.0426 111.268 77.287C110.903 77.5314 110.618 77.8787 110.45 78.2851C110.282 78.6915 110.238 79.1386 110.324 79.57C110.41 80.0014 110.621 80.3977 110.932 80.7087C111.243 81.0197 111.638 81.2315 112.069 81.3173C112.5 81.4031 112.947 81.3591 113.353 81.1907C113.759 81.0224 114.106 80.7373 114.35 80.3716C114.594 80.0059 114.724 79.5759 114.724 79.136C114.723 78.5464 114.489 77.9812 114.073 77.5643C113.656 77.1474 113.092 76.9129 112.503 76.9122V76.9122Z" fill="#3F3D56"/>
<path d="M112.503 234.483C111.773 234.483 111.061 234.267 110.454 233.861C109.848 233.455 109.376 232.879 109.097 232.205C108.817 231.53 108.744 230.788 108.887 230.072C109.029 229.356 109.38 228.698 109.896 228.182C110.411 227.666 111.068 227.315 111.783 227.172C112.499 227.03 113.24 227.103 113.913 227.382C114.587 227.662 115.163 228.135 115.568 228.742C115.973 229.348 116.189 230.062 116.189 230.792C116.188 231.771 115.8 232.709 115.108 233.401C114.417 234.093 113.48 234.482 112.503 234.483V234.483ZM112.503 227.954C111.942 227.954 111.394 228.121 110.928 228.433C110.462 228.744 110.098 229.188 109.884 229.706C109.669 230.225 109.613 230.795 109.723 231.346C109.832 231.896 110.102 232.402 110.498 232.799C110.895 233.196 111.4 233.466 111.95 233.575C112.5 233.685 113.07 233.629 113.587 233.414C114.105 233.199 114.548 232.835 114.86 232.369C115.171 231.902 115.337 231.353 115.337 230.792C115.336 230.04 115.037 229.318 114.506 228.786C113.975 228.254 113.254 227.955 112.503 227.954V227.954Z" fill="#3F3D56"/>
<path d="M51.5216 238H11.9437C8.96418 237.997 6.10766 236.81 4.00083 234.701C1.89399 232.592 0.708902 229.732 0.705566 226.749V124.153C0.708944 121.17 1.89404 118.31 4.00085 116.201C6.10767 114.092 8.96416 112.906 11.9436 112.902H51.5217C54.5011 112.906 57.3576 114.092 59.4645 116.201C61.5713 118.31 62.7564 121.17 62.7597 124.153V142.513C62.9615 142.597 63.1339 142.739 63.2553 142.922C63.3766 143.104 63.4414 143.318 63.4417 143.537L63.4416 155.483C63.4414 155.702 63.3765 155.916 63.2552 156.098C63.1339 156.281 62.9615 156.423 62.7597 156.507V226.75C62.7563 229.732 61.5712 232.592 59.4644 234.701C57.3576 236.81 54.5011 237.997 51.5216 238V238ZM11.9436 113.755C9.19009 113.759 6.55023 114.855 4.60318 116.804C2.65613 118.753 1.56089 121.396 1.55774 124.153V226.749C1.56083 229.506 2.65606 232.149 4.60313 234.098C6.55019 236.047 9.1901 237.144 11.9437 237.147H51.5216C54.2751 237.144 56.915 236.047 58.8621 234.098C60.8091 232.149 61.9044 229.506 61.9075 226.75V155.739H62.3336C62.4014 155.739 62.4665 155.712 62.5144 155.664C62.5624 155.616 62.5894 155.551 62.5894 155.483L62.5895 143.537C62.5894 143.469 62.5624 143.404 62.5145 143.356C62.4665 143.308 62.4015 143.281 62.3336 143.281H61.9075V124.153C61.9044 121.396 60.8092 118.753 58.8621 116.804C56.9151 114.855 54.2752 113.759 51.5217 113.755H11.9436Z" fill="#3F3D56"/>
<path d="M51.9579 116.145H46.7916C47.0292 116.728 47.1199 117.361 47.0557 117.987C46.9915 118.614 46.7744 119.215 46.4235 119.737C46.0726 120.26 45.5987 120.688 45.0436 120.984C44.4884 121.281 43.869 121.435 43.2399 121.435H20.5662C19.9372 121.435 19.3178 121.281 18.7626 120.984C18.2074 120.688 17.7335 120.26 17.3827 119.737C17.0318 119.215 16.8147 118.614 16.7505 117.987C16.6863 117.361 16.777 116.728 17.0145 116.145H12.1893C10.0479 116.145 7.99413 116.996 6.47991 118.512C4.96569 120.028 4.115 122.084 4.11499 124.228V226.674C4.11499 228.818 4.96567 230.874 6.47989 232.39C7.99412 233.906 10.0478 234.757 12.1893 234.757H51.9579C54.0993 234.757 56.153 233.906 57.6672 232.39C59.1815 230.874 60.0322 228.818 60.0322 226.674V124.228C60.0321 122.084 59.1815 120.028 57.6672 118.512C56.153 116.996 54.0993 116.145 51.9579 116.145V116.145Z" fill="#6C63FF"/>
<path d="M315.036 237.594H197.008C195.833 237.595 194.668 237.364 193.582 236.914C192.496 236.464 191.508 235.805 190.677 234.973C189.845 234.141 189.185 233.153 188.735 232.066C188.285 230.978 188.053 229.813 188.053 228.636C188.053 227.459 188.285 226.294 188.735 225.206C189.185 224.119 189.845 223.131 190.677 222.299C191.508 221.468 192.496 220.808 193.582 220.358C194.668 219.908 195.833 219.677 197.008 219.678H315.036C317.408 219.68 319.682 220.625 321.359 222.305C323.036 223.984 323.977 226.262 323.977 228.636C323.977 231.011 323.036 233.288 321.359 234.968C319.682 236.647 317.408 237.592 315.036 237.594ZM197.008 220.531C194.861 220.531 192.802 221.385 191.284 222.905C189.766 224.425 188.913 226.487 188.913 228.636C188.913 230.786 189.766 232.847 191.284 234.367C192.802 235.887 194.861 236.741 197.008 236.741H315.036C317.184 236.741 319.243 235.887 320.761 234.367C322.279 232.847 323.132 230.786 323.132 228.636C323.132 226.487 322.279 224.425 320.761 222.905C319.243 221.385 317.184 220.531 315.036 220.531H197.008Z" fill="#3F3D56"/>
<path d="M400.737 169.39L404.042 176.309L432.272 166.838L427.394 156.626L400.737 169.39Z" fill="#FFB8B8"/>
<path d="M404 192.725L393.611 170.981L402.003 166.962L408.685 180.948C409.668 183.006 409.794 185.37 409.036 187.521C408.278 189.672 406.697 191.434 404.641 192.418L404 192.725V192.725Z" fill="#2F2E41"/>
<path d="M394.082 231.176L401.738 230.917L402.06 201.081L393.085 201.611L394.082 231.176Z" fill="#FFB8B8"/>
<path d="M416.595 237.945H392.517V228.632H408.004C410.282 228.632 412.467 229.539 414.078 231.151C415.69 232.764 416.595 234.952 416.595 237.233V237.945V237.945Z" fill="#2F2E41"/>
<path d="M394.712 226.694C394.07 226.694 393.446 226.479 392.941 226.082C392.435 225.686 392.077 225.131 391.924 224.507C387.73 207.636 372.123 122.633 385.924 105.938L386.044 105.792L386.227 105.746C387.196 105.5 405.459 99.8399 416.175 108.675L416.3 108.779L422.264 126.062L438.342 149.954C439.222 151.262 439.831 152.734 440.133 154.283C440.435 155.831 440.423 157.424 440.098 158.968C439.774 160.512 439.143 161.975 438.243 163.27C437.343 164.565 436.193 165.666 434.86 166.508L413.748 179.845C413.238 180.154 412.646 180.297 412.051 180.255C411.457 180.213 410.89 179.988 410.428 179.611C410.04 179.29 409.742 178.874 409.562 178.403L405.126 167.299C404.861 166.626 404.856 165.878 405.113 165.202C405.37 164.525 405.87 163.969 406.514 163.642L416.406 158.691C416.676 158.542 416.911 158.335 417.094 158.085C417.276 157.835 417.402 157.548 417.462 157.245C417.489 156.97 417.449 156.693 417.345 156.437C417.242 156.181 417.078 155.954 416.868 155.775L405.386 145.866C405.131 145.646 404.817 145.505 404.483 145.461C404.148 145.417 403.809 145.471 403.505 145.617C403.201 145.764 402.947 145.996 402.773 146.285C402.599 146.574 402.513 146.907 402.526 147.244L405.372 222.467C405.398 223.174 405.165 223.865 404.717 224.411C404.268 224.957 403.636 225.319 402.938 225.43L395.173 226.657C395.02 226.682 394.866 226.694 394.712 226.694Z" fill="#2F2E41"/>
<path d="M414.519 111.742C414.453 111.742 414.388 111.739 414.323 111.734L385.689 109.611C385.291 109.582 384.906 109.462 384.562 109.26C384.219 109.057 383.927 108.779 383.708 108.445C383.49 108.112 383.351 107.732 383.303 107.336C383.254 106.94 383.298 106.538 383.43 106.162C385.192 101.078 385.408 95.5856 384.051 90.3789C382.186 83.0176 382.142 69.3302 382.282 61.8266C382.313 60.5546 382.823 59.3412 383.709 58.4287C384.595 57.5161 385.792 56.9714 387.061 56.9032L387.061 56.893L387.638 56.9001C392.303 56.9655 400.863 57.2987 407.867 58.7577C410.228 59.2468 412.352 60.526 413.89 62.3846C415.427 64.2432 416.287 66.5705 416.327 68.9834C416.486 75.9499 416.509 85.3793 415.72 90.7394C415.053 95.2614 416.284 103.946 417.077 108.719C417.138 109.091 417.118 109.472 417.018 109.835C416.917 110.199 416.739 110.536 416.496 110.823C416.253 111.111 415.95 111.342 415.608 111.5C415.267 111.659 414.895 111.741 414.519 111.742H414.519Z" fill="#3F3D56"/>
<path d="M424.741 139.067C423.978 138.701 423.304 138.173 422.768 137.518C422.231 136.864 421.844 136.1 421.635 135.279C421.425 134.459 421.398 133.603 421.554 132.771C421.711 131.939 422.048 131.151 422.542 130.464L409.317 73.3726H419.315L430.987 129.338C432.085 130.245 432.814 131.524 433.034 132.932C433.254 134.341 432.95 135.781 432.18 136.98C431.41 138.179 430.228 139.054 428.857 139.439C427.485 139.823 426.021 139.691 424.741 139.067H424.741Z" fill="#FFB8B8"/>
<path d="M362.107 79.5572L377.94 64.5635L383.905 72.9234L368.993 86.0604L388.549 101.608C388.691 101.598 388.831 101.586 388.975 101.586C390.179 101.585 391.357 101.931 392.369 102.582C393.381 103.234 394.184 104.164 394.683 105.261C395.181 106.357 395.353 107.574 395.178 108.766C395.003 109.958 394.489 111.075 393.697 111.982C392.905 112.889 391.869 113.549 390.713 113.882C389.556 114.215 388.328 114.207 387.176 113.86C386.024 113.512 384.996 112.84 384.215 111.923C383.434 111.007 382.934 109.884 382.774 108.69L382.712 108.752L362.358 91.0921C361.537 90.3803 360.875 89.5042 360.413 88.5205C359.952 87.5367 359.701 86.467 359.677 85.3803C359.654 84.2937 359.858 83.2141 360.276 82.2111C360.695 81.2082 361.318 80.3041 362.107 79.5572V79.5572Z" fill="#FFB8B8"/>
<path d="M410.37 77.0308C409.881 77.0323 409.401 76.8944 408.987 76.6332C408.573 76.3719 408.241 75.9981 408.032 75.5554C406.77 72.889 405.902 70.0536 405.453 67.1376C404.766 62.3747 408.075 59.5413 411.439 58.924C414.711 58.3235 418.698 59.7638 419.716 64.3448C419.802 64.7326 419.868 65.1245 419.914 65.5189C420.322 68.9916 420.706 71.6924 421.055 73.5469C421.124 73.9115 421.113 74.2866 421.025 74.6469C420.936 75.0072 420.772 75.3443 420.542 75.6356C420.313 75.9268 420.023 76.1654 419.694 76.3354C419.364 76.5053 419.002 76.6025 418.632 76.6206L410.503 77.0274C410.459 77.0297 410.414 77.0308 410.37 77.0308Z" fill="#3F3D56"/>
<path d="M399.033 51.9856C408.595 51.9856 416.347 44.2258 416.347 34.6535C416.347 25.0813 408.595 17.3214 399.033 17.3214C389.472 17.3214 381.72 25.0813 381.72 34.6535C381.72 44.2258 389.472 51.9856 399.033 51.9856Z" fill="#2F2E41"/>
<path d="M399.138 53.3424C406.966 53.3424 413.312 46.9894 413.312 39.1526C413.312 31.3158 406.966 24.9628 399.138 24.9628C391.31 24.9628 384.964 31.3158 384.964 39.1526C384.964 46.9894 391.31 53.3424 399.138 53.3424Z" fill="#FFB8B8"/>
<path d="M373.98 70.1251C373.618 69.7952 373.358 69.3689 373.229 68.8962C373.1 68.4235 373.108 67.9239 373.252 67.4555C374.121 64.6366 375.395 61.9588 377.032 59.5057C379.74 55.5298 384.091 55.6786 386.988 57.4991C389.806 59.2698 391.773 63.0278 389.432 67.0943C389.234 67.438 389.018 67.7715 388.785 68.0934C386.743 70.9295 385.203 73.1803 384.209 74.7837C384.013 75.0989 383.752 75.3684 383.444 75.5742C383.136 75.7799 382.787 75.9172 382.421 75.9766C382.055 76.036 381.681 76.0163 381.323 75.9187C380.966 75.8211 380.633 75.648 380.348 75.4109L374.08 70.2124C374.046 70.184 374.013 70.1549 373.98 70.1251Z" fill="#3F3D56"/>
<path d="M395.671 19.1744C392.187 17.0934 391.432 11.9112 393.508 8.42168C395.584 4.93212 399.778 3.11183 403.833 2.99186C409.626 2.82049 415.22 5.70775 419.274 9.85248C423.329 13.9972 426.004 19.3027 428.043 24.7331C430.082 30.1635 431.545 35.7956 433.554 41.2371C434.585 44.0294 435.855 46.8964 438.213 48.7097C440.571 50.5229 444.32 50.85 446.336 48.6617C446.329 52.1634 443.647 55.3466 440.321 56.4308C436.995 57.515 433.233 56.6963 430.317 54.7619C425.259 51.4061 422.816 45.2805 421.42 39.3686C420.025 33.4568 419.337 27.262 416.53 21.876C415.367 19.6445 413.774 17.5247 411.532 16.386C409.289 15.2474 406.302 15.3222 404.499 17.0757C403.663 17.8879 403.122 18.9953 402.174 19.6724C401.574 20.048 400.897 20.2814 400.193 20.3547C399.489 20.4281 398.778 20.3395 398.114 20.0957C396.79 19.5976 395.552 18.898 394.442 18.0216" fill="#2F2E41"/>
<path d="M384.335 29.5649C385.701 31.4036 387.425 32.9464 389.402 34.1004C391.38 35.2544 393.57 35.9956 395.841 36.2794C398.113 36.5632 400.418 36.3838 402.618 35.7519C404.818 35.1199 406.868 34.0486 408.643 32.6024C410.02 31.4815 411.298 29.9367 411.212 28.1626C411.123 26.3454 409.64 24.9182 408.125 23.9132C404.14 21.291 399.347 20.1885 394.618 20.8063C391.92 21.1693 389.214 22.1537 387.304 24.0949C385.393 26.0361 384.441 29.0552 385.426 31.5955" fill="#2F2E41"/>
</svg>
